<svg width="510" height="510" viewBox="0 0 510 510" fill="none" xmlns="http://www.w3.org/2000/svg">
<rect width="510" height="510" fill="#151515"/>
<path d="M410.928 132.576L280.296 54.9722C264.694 45.6759 245.455 45.6759 229.853 54.9722L99.2211 132.576C83.6196 141.791 74 158.928 74 177.44V332.566C74 351.078 83.6196 368.215 99.2211 377.43L229.853 454.953C237.614 459.561 246.344 461.905 255.075 461.905C263.805 461.905 272.454 459.561 280.296 454.953L410.928 377.43C426.529 368.134 436.149 351.078 436.149 332.566V177.44C436.149 158.928 426.529 141.791 410.928 132.576Z" fill="#D0AEE8"/>
<path d="M410.928 132.576L280.296 54.9722C272.535 50.3645 263.805 48.0203 255.075 48.0203C246.344 48.0203 237.695 50.3645 229.853 54.9722L99.2211 132.576C83.6196 141.791 74 158.928 74 177.44V332.566C74 351.078 83.6196 368.215 99.2211 377.43L229.853 454.953C237.614 459.561 246.344 461.905 255.075 461.905C263.805 461.905 272.454 459.561 280.296 454.953L410.928 377.43C426.529 368.134 436.149 351.078 436.149 332.566V177.44C436.149 158.928 426.529 141.791 410.928 132.576ZM234.461 447.031L103.829 369.508C91.0566 361.91 83.1346 347.763 83.1346 332.566V177.44C83.1346 162.243 91.0566 148.096 103.829 140.498L234.461 62.9751C240.766 59.2566 247.88 57.3165 255.075 57.3165C262.269 57.3165 269.463 59.2566 275.688 62.9751L406.32 140.498C417.072 146.884 424.347 157.958 426.368 170.407C422.003 161.192 412.302 158.605 400.904 165.315L277.305 241.705C261.865 250.678 250.548 260.864 250.548 279.375V431.672C250.548 442.827 254.994 450.022 261.946 452.124C259.682 452.528 257.419 452.77 255.075 452.77C247.88 452.69 240.686 450.749 234.461 447.031Z" fill="#222222"/>
<path d="M376.734 347.521L344.157 367.002C343.267 367.487 342.621 368.053 342.621 369.104V377.592C342.621 378.643 343.348 379.047 344.157 378.562L377.219 358.514C378.108 358.029 378.189 357.059 378.189 356.009V348.491C378.27 347.44 377.542 347.036 376.734 347.521Z" fill="#D0AEE8"/>
<path d="M307.457 275.899C308.508 275.333 309.397 276.061 309.397 277.435L309.478 288.671C314.166 286.812 318.289 286.327 322.007 287.136C322.816 287.378 323.139 288.429 322.816 289.722L320.31 299.665C320.148 300.393 319.663 301.201 319.178 301.686C318.936 301.929 318.774 302.09 318.531 302.171C318.208 302.333 317.885 302.414 317.561 302.333C315.864 301.929 311.822 301.039 305.517 304.273C298.888 307.668 296.544 313.408 296.625 317.692C296.706 322.785 299.292 324.401 308.346 324.482C320.391 324.644 325.645 329.979 325.726 342.105C325.888 354.068 319.502 366.841 309.72 374.763L309.963 385.918C309.963 387.292 309.074 388.828 308.023 389.313L301.394 393.113C300.343 393.679 299.454 393.032 299.454 391.658L299.373 380.664C293.715 383.008 287.975 383.574 284.338 382.119C283.61 381.876 283.367 380.825 283.61 379.694L286.035 369.589C286.197 368.781 286.682 367.972 287.248 367.487C287.49 367.326 287.652 367.164 287.894 367.002C288.299 366.841 288.622 366.76 288.945 366.922C292.906 368.215 297.918 367.649 302.768 365.143C308.912 361.99 313.035 355.766 312.954 349.461C312.873 343.802 309.801 341.458 302.364 341.377C292.906 341.377 284.014 339.518 283.852 325.533C283.772 314.054 289.754 302.09 299.211 294.492L299.131 283.255C299.131 281.881 299.939 280.345 301.071 279.779L307.457 275.899Z" fill="#D0AEE8"/>
</svg>
