<svg width="510" height="510" viewBox="0 0 510 510" fill="none" xmlns="http://www.w3.org/2000/svg">
<rect width="510" height="510" fill="#151515"/>
<path d="M434.736 238.781L272.025 76.0282C267.521 71.5279 261.414 69 255.047 69C248.68 69 242.573 71.5279 238.068 76.0282L204.237 109.835L247.105 152.703C269.62 145.098 290.938 166.657 283.208 189.048L324.529 230.368C353.01 220.55 375.435 256.163 354.042 277.538C332.001 299.58 295.623 275.15 307.446 246.469L268.88 207.953V309.34C289.931 319.774 287.402 344.162 276.435 355.104C271.077 360.459 263.812 363.467 256.237 363.467C248.661 363.467 241.396 360.459 236.038 355.104C221.419 340.459 226.827 316.071 245.399 308.508V206.164C228.092 199.083 224.93 180.586 229.889 168.721L187.629 126.41L76.0316 238.023C71.5293 242.527 69 248.634 69 255.002C69 261.37 71.5293 267.477 76.0316 271.98L238.792 434.733C243.295 439.232 249.401 441.76 255.767 441.76C262.132 441.76 268.238 439.232 272.741 434.733L434.736 272.737C439.238 268.234 441.768 262.127 441.768 255.759C441.768 249.391 439.238 243.284 434.736 238.781V238.781Z" fill="#D0AEE8"/>
</svg>
