<svg width="510" height="510" viewBox="0 0 510 510" fill="none" xmlns="http://www.w3.org/2000/svg">
<rect width="510" height="510" fill="#151515"/>
<path d="M69 69V441.76H441.76V69H69ZM271.855 359.72C271.855 395.997 250.554 412.555 219.518 412.555C191.478 412.555 175.253 398.077 166.933 380.521L195.472 363.297C200.964 373.032 205.956 381.27 218.021 381.27C229.503 381.27 236.825 376.777 236.825 359.22V240.153H271.855V359.72V359.72ZM354.727 412.555C322.194 412.555 301.143 397.079 290.909 376.777L319.448 360.302C326.937 372.533 336.755 381.603 353.978 381.603C368.456 381.603 377.775 374.364 377.775 364.296C377.775 352.314 368.29 348.071 352.231 340.998L343.494 337.254C318.2 326.521 301.476 312.958 301.476 284.419C301.476 258.126 321.528 238.156 352.73 238.156C375.029 238.156 391.005 245.895 402.487 266.197L375.196 283.67C369.205 272.936 362.715 268.693 352.647 268.693C342.413 268.693 335.923 275.183 335.923 283.67C335.923 294.154 342.413 298.397 357.473 304.97L366.21 308.715C395.997 321.445 412.721 334.508 412.721 363.797C412.721 395.248 387.926 412.555 354.727 412.555V412.555Z" fill="#D0AEE8"/>
</svg>
