<svg width="510" height="510" viewBox="0 0 510 510" fill="none" xmlns="http://www.w3.org/2000/svg">
<rect width="510" height="510" fill="#151515"/>
<path d="M434.173 208.822C427.762 183.112 415.606 163.726 389.713 163.726H356.326V203.164C356.326 233.783 330.349 259.576 300.709 259.576H211.788C187.477 259.576 167.328 280.377 167.328 304.755V389.456C167.328 413.585 188.309 427.73 211.788 434.636C239.93 442.873 266.989 444.37 300.709 434.636C323.105 428.146 345.169 415.083 345.169 389.456V355.593H256.332V344.277H389.713C415.606 344.277 425.181 326.222 434.173 299.181C443.498 271.308 443.082 244.516 434.173 208.822V208.822ZM306.287 378.141C315.529 378.141 323.022 385.712 323.022 395.031C323.022 404.433 315.529 412.004 306.287 412.004C297.129 412.004 289.552 404.35 289.552 395.031C289.635 385.629 297.129 378.141 306.287 378.141ZM207.709 248.427H296.629C321.357 248.427 341.089 228.042 341.089 203.248V118.464C341.089 94.3347 320.774 76.2797 296.629 72.2027C266.822 67.2937 234.435 67.5433 207.709 72.2859C170.075 78.9422 163.248 92.8371 163.248 118.547V152.411H252.252V163.726H129.861C103.968 163.726 81.3214 179.285 74.2444 208.822C66.0851 242.686 65.752 263.82 74.2444 299.181C80.5721 325.473 95.642 344.277 121.536 344.277H152.092V303.674C152.092 274.303 177.486 248.427 207.709 248.427ZM202.13 129.779C192.888 129.779 185.395 122.208 185.395 112.889C185.478 103.487 192.888 95.9156 202.13 95.9156C211.289 95.9156 218.865 103.57 218.865 112.889C218.865 122.208 211.372 129.779 202.13 129.779V129.779Z" fill="#D0AEE8"/>
</svg>
