<svg width="510" height="510" viewBox="0 0 510 510" fill="none" xmlns="http://www.w3.org/2000/svg">
<rect width="510" height="510" fill="#151515"/>
<path d="M389.946 189.797C385.453 188.3 380.961 186.885 376.468 185.554C377.216 182.476 377.882 179.397 378.548 176.319C388.781 126.731 382.042 86.8778 359.328 73.732C337.446 61.1687 301.753 74.2313 265.644 105.681C262.066 108.76 258.572 112.004 255.244 115.249C252.998 113.086 250.668 110.923 248.338 108.843C210.482 75.2297 172.542 61.0855 149.828 74.3145C128.03 86.961 121.54 124.485 130.692 171.41C131.607 176.069 132.606 180.645 133.771 185.304C128.446 186.802 123.204 188.466 118.295 190.213C73.8659 205.605 42 229.9 42 255.027C42 280.986 75.946 307.027 122.122 322.836C125.867 324.084 129.611 325.332 133.438 326.413C132.19 331.405 131.108 336.314 130.11 341.389C121.374 387.566 128.196 424.174 149.995 436.738C172.459 449.717 210.232 436.405 247.007 404.206C249.919 401.627 252.831 398.964 255.743 396.136C259.404 399.713 263.231 403.124 267.058 406.453C302.668 437.07 337.862 449.467 359.578 436.904C382.042 423.925 389.364 384.571 379.879 336.647C379.13 332.986 378.298 329.242 377.383 325.415C380.045 324.666 382.625 323.834 385.204 323.002C433.211 307.111 467.989 281.402 467.989 255.027C467.989 229.817 435.208 205.356 389.946 189.797V189.797ZM277.375 119.16C308.326 92.2027 337.197 81.6361 350.343 89.2074C364.404 97.2779 369.812 129.893 360.992 172.741C360.41 175.57 359.827 178.316 359.079 181.061C340.608 176.901 321.888 173.906 303.084 172.242C292.268 156.767 280.454 141.957 267.641 128.062C270.886 124.984 274.047 122.072 277.375 119.16V119.16ZM181.112 298.208C185.355 305.447 189.682 312.685 194.258 319.757C181.278 318.343 168.382 316.263 155.652 313.517C159.313 301.536 163.889 289.139 169.214 276.493C173.041 283.814 176.952 291.053 181.112 298.208V298.208ZM155.902 198.117C167.883 195.455 180.613 193.292 193.842 191.628C189.432 198.533 185.106 205.605 181.029 212.761C176.952 219.833 172.958 227.071 169.214 234.393C163.973 221.996 159.563 209.849 155.902 198.117ZM178.699 255.443C184.19 243.961 190.181 232.729 196.504 221.663C202.827 210.598 209.65 199.865 216.805 189.298C229.285 188.383 242.015 187.884 254.994 187.884C267.974 187.884 280.787 188.383 293.184 189.298C300.256 199.781 306.995 210.514 313.401 221.497C319.808 232.479 325.798 243.712 331.456 255.11C325.882 266.592 319.891 277.907 313.485 289.056C307.161 300.122 300.422 310.855 293.35 321.504C280.953 322.42 268.057 322.836 254.994 322.836C241.932 322.836 229.285 322.42 217.055 321.671C209.816 311.104 202.994 300.288 196.587 289.222C190.181 278.157 184.274 266.925 178.699 255.443ZM328.96 298.042C333.203 290.72 337.197 283.315 341.107 275.827C346.432 287.891 351.091 300.122 355.168 312.685C342.272 315.597 329.21 317.844 316.064 319.341C320.557 312.352 324.8 305.197 328.96 298.042ZM340.941 234.393C337.03 227.071 333.037 219.75 328.877 212.594C324.8 205.522 320.557 198.533 316.147 191.628C329.542 193.292 342.355 195.538 354.336 198.284C350.509 210.598 346.016 222.578 340.941 234.393V234.393ZM255.161 140.792C263.897 150.277 272.134 160.261 279.788 170.578C263.314 169.829 246.757 169.829 230.284 170.578C238.437 159.845 246.841 149.861 255.161 140.792ZM158.648 89.7898C172.625 81.6361 203.659 93.2843 236.357 122.238C238.437 124.069 240.517 126.065 242.681 128.062C229.784 141.957 217.887 156.767 206.987 172.242C188.184 173.906 169.547 176.818 151.076 180.895C149.995 176.652 149.08 172.325 148.164 167.999C140.343 127.729 145.502 97.3611 158.648 89.7898V89.7898ZM138.263 309.107C134.769 308.109 131.358 307.027 127.947 305.863C110.225 300.288 90.0901 291.469 75.53 279.904C67.1267 274.08 61.469 265.094 59.8882 255.027C59.8882 239.801 86.1797 220.332 124.119 207.103C128.862 205.439 133.687 203.941 138.513 202.527C144.171 220.582 150.993 238.303 158.897 255.443C150.91 272.832 144.004 290.803 138.263 309.107V309.107ZM235.276 390.644C221.548 403.208 205.656 413.192 188.35 420.014C179.115 424.424 168.465 424.84 158.98 421.096C145.752 413.441 140.26 384.071 147.748 344.551C148.664 339.892 149.662 335.233 150.827 330.656C169.464 334.65 188.267 337.396 207.32 338.81C218.303 354.369 230.367 369.262 243.263 383.239C240.601 385.819 237.938 388.315 235.276 390.644ZM255.66 370.426C247.173 361.274 238.687 351.124 230.45 340.225C238.437 340.557 246.674 340.724 254.994 340.724C263.564 340.724 271.967 340.557 280.287 340.141C272.633 350.708 264.396 360.775 255.66 370.426V370.426ZM364.404 395.387C363.655 405.537 358.663 415.022 350.675 421.429C337.446 429.083 309.241 419.099 278.79 392.974C275.295 389.979 271.801 386.734 268.223 383.406C280.953 369.345 292.684 354.452 303.334 338.81C322.387 337.229 341.357 334.317 360.077 330.074C360.909 333.485 361.658 336.897 362.324 340.225C366.4 358.196 367.066 376.916 364.404 395.387V395.387ZM379.546 305.946C377.216 306.695 374.887 307.443 372.474 308.109C366.65 289.971 359.495 272.249 351.258 255.027C359.245 238.054 365.984 220.582 371.642 202.693C375.968 203.941 380.129 205.273 384.122 206.604C422.894 219.916 450.1 239.718 450.1 254.86C450.1 271.168 421.063 292.218 379.546 305.946ZM254.994 293.466C276.044 293.466 293.1 276.409 293.1 255.36C293.1 234.31 276.044 217.254 254.994 217.254C233.945 217.254 216.888 234.31 216.888 255.36C216.888 276.409 233.945 293.466 254.994 293.466Z" fill="#D0AEE8"/>
</svg>
