<svg width="510" height="510" viewBox="0 0 510 510" fill="none" xmlns="http://www.w3.org/2000/svg">
<rect width="510" height="510" fill="#151515"/>
<path d="M255 78C157.18 78 78 157.164 78 255C78 352.82 157.164 432 255 432C289.368 432 323.046 421.908 351.642 403.292C360.21 397.715 362.08 385.958 355.604 378.047L348.341 369.174C342.866 362.485 333.225 360.847 325.95 365.513C304.903 379.012 280.204 386.323 255 386.323C182.588 386.323 123.677 327.412 123.677 255C123.677 182.588 182.588 123.677 255 123.677C326.47 123.677 386.323 164.801 386.323 237.871C386.323 265.553 371.268 294.784 344.806 297.603C332.424 297.279 332.737 288.427 335.188 276.175L351.912 189.738C353.958 179.168 345.861 169.355 335.096 169.355H302.993C300.622 169.355 298.335 170.227 296.567 171.806C294.799 173.385 293.674 175.559 293.406 177.914L293.399 177.98C282.91 165.204 264.531 162.439 250.597 162.439C197.369 162.439 152.226 206.856 152.226 270.537C152.226 317.145 178.48 346.098 220.742 346.098C240.001 346.098 261.687 334.938 274.264 318.739C281.06 343.08 303.25 343.079 324.73 343.079C402.459 343.079 432 291.969 432 237.871C432 140.559 353.508 78 255 78ZM239.527 295.275C223.647 295.275 213.783 284.124 213.783 266.176C213.783 234.064 235.751 214.269 255.628 214.269C271.538 214.269 281.037 225.146 281.037 243.367C281.037 275.527 256.86 295.275 239.527 295.275Z" fill="#CFD1E9"/>
</svg>
