<svg width="503" height="100" viewBox="0 0 503 100" fill="none" xmlns="http://www.w3.org/2000/svg">
<g clip-path="url(#clip0)">
<rect width="503" height="100" fill="#151515"/>
<path d="M181.087 67V35.444H203.088V39.609H186.428V49.164H201.275V53.28H186.428V62.884H203.088V67H181.087ZM222.727 67V35.444H228.215L238.211 55.877L248.158 35.444H253.646V67H248.354V44.117L239.828 61.561H236.594L228.019 44.117V67H222.727ZM273.581 67L285.635 35.444H291.613L303.569 67H298.081L294.945 58.866H282.254L279.118 67H273.581ZM283.087 54.75H294.063L288.575 40.295L283.087 54.75ZM323.522 67V35.444H328.863V67H323.522ZM349.754 67V35.444H355.095V62.884H371.265V67H349.754Z" fill="white"/>
<path d="M156.932 27.4483C158.29 26.3687 160.31 27.3786 160.31 29.0851V100.305C160.31 109.534 152.822 117.021 143.593 117.021H-1.28344C-10.5124 117.021 -18 109.534 -18 100.305V29.1199C-18 27.3786 -16.0149 26.4035 -14.6219 27.4831C-6.8208 33.5429 3.52258 41.2394 39.0453 67.0456C46.3936 72.4089 58.7917 83.6925 71.155 83.6229C83.5879 83.7274 96.2298 72.1999 103.3 67.0456C138.822 41.2394 149.131 33.508 156.932 27.4483ZM71.155 72.4437C79.2347 72.583 90.8666 62.2744 96.7174 58.0257C142.932 24.4881 146.449 21.5627 157.106 13.2044C159.126 11.6372 160.31 9.19937 160.31 6.62223V0.00525665C160.31 -9.22368 152.822 -16.7113 143.593 -16.7113H-1.28344C-10.5124 -16.7113 -18 -9.22368 -18 0.00525665V6.62223C-18 9.19937 -16.8159 11.6024 -14.796 13.2044C-4.13918 21.5278 -0.621737 24.4881 45.5926 58.0257C51.4434 62.2744 63.0753 72.583 71.155 72.4437Z" fill="#9D8BDE"/>
</g>
<defs>
<clipPath id="clip0">
<rect width="503" height="100" fill="white"/>
</clipPath>
</defs>
</svg>
