<svg width="503" height="100" viewBox="0 0 503 100" fill="none" xmlns="http://www.w3.org/2000/svg">
<g clip-path="url(#clip0)">
<rect width="503" height="100" fill="#151515"/>
<path d="M139.472 56.3613C138.759 57.758 137.948 59.0964 137.138 60.4345C112.422 101.248 52.491 129.228 -4.99682 94.4149C-22.7077 83.6897 -36.0924 68.6605 -44.6072 51.4864C-42.2643 53.2968 -39.903 54.8574 -37.2898 56.4399C-22.6762 65.2895 -6.27159 68.5614 9.50681 66.7511C-4.06233 58.1421 -10.1963 42.2786 -6.75541 27.641C-4.99317 29.0999 -3.1735 30.4631 -1.14091 31.694C1.66563 33.3936 4.70409 34.7108 7.72197 35.6244C-4.86489 24.0828 -8.08331 5.15161 1.00413 -9.85485L1.23558 -10.237C4.00781 -5.42303 7.97902 -1.05871 12.9924 2.23819C7.92968 -8.40455 8.14364 -21.2076 14.6264 -31.9129C18.0993 -37.6478 22.831 -41.9673 28.3194 -44.9142C32.3627 -16.8614 48.0846 9.38016 73.211 26.4251C74.1164 23.8381 75.2728 21.2729 76.7199 18.8833C87.023 1.86942 109.352 -3.5504 126.676 6.94024C135.676 12.3907 141.549 21.0414 143.612 30.521C151.487 33.4611 159.825 34.9827 167.967 35.08C161.303 40.8421 152.72 43.875 143.921 43.7714C150.617 46.9122 157.756 48.8836 164.816 49.8933C156.854 53.4321 148.232 55.6565 139.472 56.3613Z" fill="#687ED6"/>
<path d="M189.27 67V39.609H179.176V35.444H204.656V39.609H194.611V67H189.27ZM229.338 67L221.988 35.444H227.231L232.572 59.111L238.55 39.266V35.444H242.911L249.624 59.111L255.063 35.444H260.257L252.956 67H247.713L241.392 44.901L234.679 67H229.338ZM280.207 67V35.444H285.548V67H280.207ZM314.622 67V39.609H304.528V35.444H330.008V39.609H319.963V67H314.622ZM357.172 67V39.609H347.078V35.444H372.558V39.609H362.513V67H357.172ZM391.538 67V35.444H413.539V39.609H396.879V49.164H411.726V53.28H396.879V62.884H413.539V67H391.538ZM433.179 67V35.444H447.683C451.211 35.444 453.775 36.3587 455.376 38.188C457.009 39.9847 457.826 42.4347 457.826 45.538C457.826 47.7593 457.27 49.654 456.16 51.222C455.049 52.79 453.448 53.8843 451.358 54.505C451.946 54.9297 452.403 55.387 452.73 55.877C453.056 56.367 453.383 57.0203 453.71 57.837L457.679 67H452.191L448.32 58.18C447.96 57.3307 447.519 56.7263 446.997 56.367C446.507 56.0077 445.657 55.828 444.449 55.828H438.52V67H433.179ZM438.52 51.516H446.262C448.189 51.516 449.708 51.0423 450.819 50.095C451.929 49.1477 452.485 47.6287 452.485 45.538C452.485 41.5853 450.574 39.609 446.752 39.609H438.52V51.516Z" fill="white"/>
</g>
<defs>
<clipPath id="clip0">
<rect width="503" height="100" fill="white"/>
</clipPath>
</defs>
</svg>
