<svg width="510" height="510" viewBox="0 0 510 510" fill="none" xmlns="http://www.w3.org/2000/svg">
<rect width="510" height="510" fill="#151515"/>
<path d="M424.314 170.986C424.584 174.672 424.584 178.359 424.584 182.044C424.584 294.465 336.942 424 176.757 424C127.407 424 81.5631 410.045 43 385.825C50.0117 386.614 56.7528 386.877 64.0343 386.877C104.754 386.877 142.239 373.45 172.172 350.545C133.879 349.755 101.788 325.27 90.7313 291.569C96.1252 292.359 101.518 292.886 107.182 292.886C115.002 292.886 122.823 291.832 130.104 289.99C90.1926 282.091 60.2582 247.865 60.2582 206.53V205.477C71.8536 211.796 85.3383 215.745 99.6298 216.271C76.1684 201 60.7978 174.936 60.7978 145.448C60.7978 129.651 65.1117 115.171 72.663 102.533C115.541 154.136 179.992 187.836 252.264 191.522C250.915 185.203 250.106 178.622 250.106 172.04C250.106 125.175 288.939 87 337.21 87C362.289 87 384.941 97.2679 400.852 113.855C420.538 110.169 439.415 103.06 456.135 93.3188C449.662 113.065 435.909 129.652 417.842 140.183C435.37 138.341 452.36 133.6 468 127.019C456.136 143.868 441.304 158.875 424.314 170.986Z" fill="#687ED6"/>
</svg>
