<svg width="510" height="510" viewBox="0 0 510 510" fill="none" xmlns="http://www.w3.org/2000/svg">
<rect width="510" height="510" fill="#151515"/>
<path d="M452.391 155.375C447.653 137.515 433.692 123.448 415.966 118.674C383.836 110 255 110 255 110C255 110 126.165 110 94.0343 118.674C76.3083 123.449 62.3475 137.515 57.6091 155.375C49 187.749 49 255.293 49 255.293C49 255.293 49 322.837 57.6091 355.211C62.3475 373.072 76.3083 386.552 94.0343 391.326C126.165 400 255 400 255 400C255 400 383.835 400 415.966 391.326C433.692 386.552 447.653 373.072 452.391 355.211C461 322.837 461 255.293 461 255.293C461 255.293 461 187.749 452.391 155.375ZM212.863 316.618V193.968L320.545 255.295L212.863 316.618Z" fill="#D0AEE8"/>
</svg>
