<svg width="503" height="100" viewBox="0 0 503 100" fill="none" xmlns="http://www.w3.org/2000/svg">
<g clip-path="url(#clip0)">
<rect width="503" height="100" fill="white"/>
<path d="M191.426 67V55.289L180.107 35.444H185.644L194.072 50.781L202.5 35.444H208.037L196.718 55.289V67H191.426ZM237.745 67.49C232.747 67.49 229.007 66.1833 226.524 63.57C224.041 60.924 222.8 56.8407 222.8 51.32C222.8 45.5707 224.041 41.4057 226.524 38.825C229.007 36.2443 232.747 34.954 237.745 34.954C242.776 34.954 246.516 36.2443 248.966 38.825C251.449 41.4057 252.69 45.5707 252.69 51.32C252.69 56.8407 251.449 60.924 248.966 63.57C246.516 66.1833 242.776 67.49 237.745 67.49ZM237.745 62.982C241.044 62.982 243.462 62.0837 244.997 60.287C246.565 58.4577 247.349 55.4687 247.349 51.32C247.349 46.9427 246.565 43.8883 244.997 42.157C243.462 40.393 241.044 39.511 237.745 39.511C234.478 39.511 232.061 40.393 230.493 42.157C228.958 43.8883 228.19 46.9427 228.19 51.32C228.19 55.4687 228.958 58.4577 230.493 60.287C232.061 62.0837 234.478 62.982 237.745 62.982ZM286.073 67.49C281.729 67.49 278.348 66.4447 275.93 64.354C273.546 62.2633 272.353 59.2417 272.353 55.289V35.444H277.694V55.093C277.694 57.739 278.413 59.7153 279.85 61.022C281.32 62.3287 283.395 62.982 286.073 62.982C288.719 62.982 290.761 62.3287 292.198 61.022C293.668 59.7153 294.403 57.739 294.403 55.093V35.444H299.695V55.289C299.695 59.2417 298.503 62.2633 296.118 64.354C293.734 66.4447 290.385 67.49 286.073 67.49ZM328.499 67V39.609H318.405V35.444H343.885V39.609H333.84V67H328.499ZM376.341 67.49C371.996 67.49 368.615 66.4447 366.198 64.354C363.813 62.2633 362.621 59.2417 362.621 55.289V35.444H367.962V55.093C367.962 57.739 368.68 59.7153 370.118 61.022C371.588 62.3287 373.662 62.982 376.341 62.982C378.987 62.982 381.028 62.3287 382.466 61.022C383.936 59.7153 384.671 57.739 384.671 55.093V35.444H389.963V55.289C389.963 59.2417 388.77 62.2633 386.386 64.354C384.001 66.4447 380.653 67.49 376.341 67.49ZM410.583 67V35.444H425.871C429.007 35.444 431.326 36.179 432.829 37.649C434.332 39.119 435.083 41.1933 435.083 43.872C435.083 45.5707 434.74 47.008 434.054 48.184C433.368 49.3273 432.453 50.193 431.31 50.781C432.845 51.2057 434.054 51.9733 434.936 53.084C435.851 54.162 436.308 55.7627 436.308 57.886C436.308 60.9567 435.475 63.2433 433.809 64.746C432.176 66.2487 429.758 67 426.557 67H410.583ZM415.924 48.919H425.136C426.933 48.919 428.207 48.5107 428.958 47.694C429.742 46.8447 430.134 45.7177 430.134 44.313C430.134 42.6797 429.742 41.471 428.958 40.687C428.174 39.8703 426.704 39.462 424.548 39.462H415.924V48.919ZM415.924 63.08H425.43C427.325 63.08 428.713 62.688 429.595 61.904C430.477 61.0873 430.918 59.6827 430.918 57.69C430.918 56.0567 430.477 54.848 429.595 54.064C428.746 53.2473 427.178 52.839 424.891 52.839H415.924V63.08ZM456.195 67V35.444H478.196V39.609H461.536V49.164H476.383V53.28H461.536V62.884H478.196V67H456.195Z" fill="black"/>
<path d="M150.154 9.41191C148.21 2.09067 142.481 -3.6753 135.207 -5.63207C122.023 -9.18774 69.1548 -9.18774 69.1548 -9.18774C69.1548 -9.18774 16.2871 -9.18774 3.10241 -5.63207C-4.17146 -3.67499 -9.90029 2.09067 -11.8447 9.41191C-15.3774 22.6821 -15.3774 50.369 -15.3774 50.369C-15.3774 50.369 -15.3774 78.056 -11.8447 91.3261C-9.90029 98.6474 -4.17146 104.173 3.10241 106.13C16.2871 109.686 69.1548 109.686 69.1548 109.686C69.1548 109.686 122.022 109.686 135.207 106.13C142.481 104.173 148.21 98.6474 150.154 91.3261C153.687 78.056 153.687 50.369 153.687 50.369C153.687 50.369 153.687 22.6821 150.154 9.41191V9.41191ZM51.864 75.5067V25.2313L96.0511 50.3696L51.864 75.5067V75.5067Z" fill="#8938CA"/>
</g>
<defs>
<clipPath id="clip0">
<rect width="503" height="100" fill="white"/>
</clipPath>
</defs>
</svg>
